<svg id="svg" version="1.1" xmlns="http://www.w3.org/2000/svg" xmlns:xlink="http://www.w3.org/1999/xlink" width="400" height="400" viewBox="0, 0, 400,400"><g id="svgg"><path id="path0" d="M197.266 105.382 C 195.979 106.292,188.566 112.720,180.178 120.200 C 174.210 125.522,170.847 128.477,169.481 129.600 C 168.812 130.150,167.890 130.966,167.432 131.414 C 166.974 131.862,165.160 133.474,163.400 134.995 C 161.640 136.517,160.110 137.861,160.000 137.982 C 159.890 138.103,157.437 140.314,154.548 142.897 C 149.157 147.718,148.156 148.861,147.586 150.850 C 147.033 152.775,147.871 153.200,152.221 153.200 C 156.725 153.200,156.205 152.062,156.798 163.200 C 158.066 187.003,158.880 188.497,182.200 209.821 C 185.280 212.637,189.510 216.516,191.600 218.440 C 200.522 226.656,199.709 226.618,207.666 219.201 C 242.096 187.112,241.740 187.629,242.819 168.200 C 243.064 163.800,243.384 158.670,243.532 156.800 L 243.800 153.400 248.000 153.200 C 252.038 153.008,252.205 152.964,252.333 152.059 C 252.712 149.384,251.720 148.378,229.400 128.812 C 224.780 124.763,220.460 120.958,219.800 120.358 C 218.163 118.871,208.439 110.413,204.560 107.104 C 200.958 104.030,199.624 103.716,197.266 105.382 M198.600 129.405 L 198.600 134.600 193.600 134.600 L 188.600 134.600 188.481 132.769 L 188.362 130.938 191.081 128.910 C 192.576 127.795,194.610 126.233,195.600 125.439 C 198.442 123.160,198.600 123.368,198.600 129.405 M207.029 127.741 L 211.400 131.082 211.400 132.841 L 211.400 134.600 206.400 134.600 L 201.400 134.600 201.288 129.500 C 201.149 123.162,201.070 123.186,207.029 127.741 M198.712 142.300 L 198.600 147.400 193.600 147.400 L 188.600 147.400 188.486 142.824 C 188.334 136.725,187.885 137.200,193.799 137.200 L 198.824 137.200 198.712 142.300 M211.400 142.400 L 211.400 147.400 206.400 147.400 L 201.400 147.400 201.286 142.824 C 201.134 136.691,200.697 137.155,206.492 137.288 L 211.400 137.400 211.400 142.400 M202.923 158.834 C 226.976 162.467,222.197 197.958,198.000 195.396 C 175.914 193.058,175.125 162.046,197.070 158.838 C 198.352 158.651,199.546 158.476,199.723 158.449 C 199.901 158.422,201.341 158.596,202.923 158.834 " stroke="none" fill="#f9356d" fill-rule="evenodd"></path><path id="path1" d="M269.400 233.263 C 266.356 235.085,267.378 238.600,270.950 238.600 C 273.022 238.600,273.865 237.977,274.224 236.180 C 274.684 233.880,271.543 231.980,269.400 233.263 M103.867 234.267 C 103.220 234.913,103.573 259.904,104.233 260.157 C 105.051 260.471,108.549 260.471,109.367 260.157 C 110.053 259.894,110.302 244.540,109.738 237.300 L 109.481 234.000 106.807 234.000 C 105.337 234.000,104.013 234.120,103.867 234.267 M200.894 247.063 L 201.000 260.200 208.400 260.200 C 216.266 260.200,217.330 260.007,219.905 258.112 C 223.676 255.337,222.919 248.305,218.750 247.389 C 217.259 247.062,217.315 246.397,218.915 245.400 C 222.811 242.974,222.243 237.418,217.862 235.097 C 216.350 234.295,215.507 234.203,208.494 234.071 L 200.789 233.926 200.894 247.063 M214.618 239.382 C 217.429 242.192,214.951 245.302,210.050 245.116 L 207.000 245.000 206.884 241.700 L 206.768 238.400 210.202 238.400 C 213.315 238.400,213.728 238.492,214.618 239.382 M156.400 241.610 C 154.780 241.890,153.550 242.496,152.822 243.374 C 152.209 244.113,151.600 243.836,151.600 242.819 C 151.600 241.912,150.836 241.600,148.616 241.600 C 146.081 241.600,146.070 241.639,146.077 251.303 C 146.084 261.229,145.814 260.579,149.827 260.325 L 151.800 260.200 152.000 253.516 C 152.222 246.098,152.398 245.640,155.038 245.613 C 157.447 245.588,157.775 246.490,158.000 253.741 L 158.200 260.200 160.800 260.200 L 163.400 260.200 163.600 253.740 C 163.821 246.610,164.170 245.600,166.418 245.600 C 169.038 245.600,169.366 246.434,169.594 253.660 L 169.800 260.200 172.400 260.200 L 175.000 260.200 175.000 253.000 C 175.000 246.824,174.898 245.613,174.281 244.482 C 172.384 241.008,166.608 240.497,163.837 243.559 C 162.890 244.605,162.128 244.634,161.811 243.636 C 161.315 242.071,158.920 241.174,156.400 241.610 M231.901 241.615 C 220.213 243.575,222.458 260.550,234.400 260.514 C 240.110 260.497,243.533 258.227,241.325 255.922 C 240.007 254.546,239.628 254.534,237.762 255.800 C 235.073 257.625,231.938 256.988,230.569 254.340 C 229.436 252.149,229.732 252.032,236.678 251.910 C 243.893 251.784,243.668 251.922,242.824 248.149 C 241.746 243.334,237.346 240.702,231.901 241.615 M256.200 241.575 C 254.743 241.929,252.544 243.043,252.198 243.604 C 251.837 244.188,251.200 243.687,251.200 242.819 C 251.200 241.915,250.436 241.600,248.247 241.600 C 245.590 241.600,245.600 241.562,245.600 251.272 L 245.600 259.985 246.527 260.217 C 247.036 260.345,248.341 260.394,249.427 260.325 L 251.400 260.200 251.600 253.800 C 251.819 246.806,251.838 246.730,253.585 246.006 C 257.394 244.429,258.371 246.018,258.500 254.000 L 258.600 260.200 261.400 260.200 L 264.200 260.200 264.308 253.400 C 264.466 243.500,262.155 240.130,256.200 241.575 M287.800 241.578 C 286.291 241.934,285.083 242.577,284.418 243.378 C 283.722 244.217,283.200 244.162,283.200 243.249 C 283.200 242.391,282.479 241.759,281.600 241.848 C 281.270 241.881,280.232 241.928,279.292 241.954 L 277.585 242.000 277.692 251.100 L 277.800 260.200 280.500 260.318 L 283.200 260.437 283.200 254.241 C 283.200 247.052,283.564 246.143,286.607 245.735 C 289.812 245.305,290.167 246.046,290.400 253.664 L 290.600 260.200 293.200 260.200 L 295.800 260.200 295.913 253.400 C 296.083 243.147,294.001 240.113,287.800 241.578 M113.779 242.109 C 113.672 242.390,113.633 246.575,113.692 251.409 L 113.800 260.200 116.400 260.200 L 119.000 260.200 119.207 254.000 C 119.459 246.460,119.796 245.600,122.497 245.600 C 124.795 245.600,124.983 246.147,125.200 253.467 L 125.400 260.200 128.000 260.200 L 130.600 260.200 130.800 253.664 C 131.022 246.407,131.347 245.600,134.048 245.600 C 136.269 245.600,136.578 246.511,136.800 253.711 L 137.000 260.200 139.600 260.200 L 142.200 260.200 142.312 253.200 C 142.407 247.319,142.317 245.959,141.749 244.693 C 140.080 240.975,134.483 240.368,131.086 243.537 L 129.971 244.577 129.086 243.526 C 127.084 241.152,123.326 240.811,121.061 242.800 C 119.475 244.193,119.200 244.264,119.200 243.280 C 119.200 241.723,114.331 240.672,113.779 242.109 M183.455 242.186 C 175.870 244.890,176.158 257.389,183.866 260.044 C 193.723 263.438,201.777 253.138,195.711 244.894 C 193.548 241.954,187.719 240.666,183.455 242.186 M268.492 241.925 C 268.101 242.180,268.009 244.322,268.092 251.228 L 268.200 260.200 270.800 260.200 L 273.400 260.200 273.400 251.000 L 273.400 241.800 271.200 241.696 C 269.990 241.639,268.771 241.742,268.492 241.925 M236.059 245.231 C 237.138 245.809,238.072 248.031,237.517 248.700 C 237.032 249.284,231.319 249.390,230.436 248.831 C 228.043 247.316,233.466 243.844,236.059 245.231 M190.674 246.611 C 193.240 249.469,192.000 255.724,188.702 256.561 C 185.034 257.491,182.423 252.696,184.052 248.022 C 185.015 245.259,188.747 244.464,190.674 246.611 M215.231 249.969 C 218.362 253.100,215.668 256.147,209.971 255.919 L 207.000 255.800 206.884 252.300 L 206.769 248.800 210.415 248.800 C 213.912 248.800,214.109 248.848,215.231 249.969 " stroke="none" fill="#2b324c" fill-rule="evenodd"></path><path id="path2" d="M0.000 200.000 L 0.000 400.000 200.000 400.000 L 400.000 400.000 400.000 200.000 L 400.000 0.000 200.000 0.000 L 0.000 0.000 0.000 200.000 M201.674 103.962 C 202.183 104.161,205.120 106.546,208.201 109.262 C 211.281 111.978,214.535 114.830,215.433 115.600 C 216.330 116.370,219.930 119.517,223.432 122.594 C 226.934 125.671,230.331 128.641,230.981 129.194 C 231.630 129.747,233.880 131.727,235.981 133.594 C 238.081 135.461,240.430 137.548,241.200 138.232 C 251.583 147.453,252.760 148.734,253.086 151.164 C 253.391 153.438,252.367 154.000,247.919 154.000 C 243.716 154.000,244.222 152.708,243.615 165.000 C 242.731 182.928,240.890 188.409,233.202 195.991 C 228.647 200.485,220.961 207.808,216.200 212.193 C 205.393 222.144,205.271 222.284,206.141 223.677 C 206.659 224.506,206.222 225.078,205.510 224.502 C 205.147 224.209,204.418 224.358,202.983 225.018 C 199.300 226.713,198.189 226.263,193.005 220.975 C 190.582 218.504,186.710 214.805,184.400 212.757 C 174.566 204.035,164.215 193.709,162.190 190.602 C 158.305 184.640,157.113 179.967,156.424 167.988 C 156.190 163.924,155.885 159.131,155.747 157.336 L 155.496 154.072 151.533 153.936 C 147.239 153.789,146.818 153.570,146.806 151.480 C 146.795 149.368,150.086 145.495,156.280 140.333 C 157.424 139.380,160.574 136.624,163.280 134.208 C 169.125 128.991,169.454 128.700,174.600 124.207 C 176.800 122.287,179.950 119.499,181.600 118.012 C 183.250 116.526,185.230 114.792,186.000 114.160 C 186.770 113.527,188.210 112.267,189.200 111.358 C 197.335 103.892,198.989 102.912,201.674 103.962 M193.503 127.996 C 186.985 132.928,187.032 134.083,193.748 133.913 L 198.200 133.800 198.315 129.891 C 198.481 124.200,198.507 124.210,193.503 127.996 M201.837 129.234 C 201.481 134.401,201.480 134.400,206.016 134.400 C 210.394 134.400,210.801 134.251,210.796 132.657 C 210.793 131.570,203.529 125.200,202.291 125.200 C 202.194 125.200,201.989 127.015,201.837 129.234 M188.990 138.500 C 188.866 138.995,188.818 141.020,188.882 143.000 L 189.000 146.600 193.600 146.600 L 198.200 146.600 198.315 142.659 C 198.465 137.531,198.532 137.600,193.359 137.600 C 189.395 137.600,189.205 137.639,188.990 138.500 M202.080 138.080 C 201.491 138.669,201.415 146.238,201.994 146.596 C 202.743 147.059,209.043 147.240,210.121 146.830 C 211.335 146.368,211.827 139.187,210.720 138.080 C 210.066 137.426,202.734 137.426,202.080 138.080 M195.800 159.767 C 184.289 162.111,178.197 174.284,183.379 184.586 C 191.842 201.411,217.346 196.307,218.288 177.600 C 218.876 165.899,208.010 157.281,195.800 159.767 M273.746 233.229 C 275.036 234.243,275.199 236.619,274.075 238.007 C 272.897 239.461,269.572 239.609,268.230 238.266 C 264.923 234.959,270.024 230.301,273.746 233.229 M109.970 233.764 C 110.277 234.133,110.379 238.305,110.306 247.448 L 110.200 260.600 106.695 260.716 L 103.189 260.831 103.295 247.334 L 103.400 233.836 104.324 233.618 C 106.305 233.151,109.530 233.234,109.970 233.764 M216.800 234.004 C 222.318 236.000,223.891 242.280,219.708 245.612 C 218.638 246.464,218.627 246.510,219.390 246.947 C 225.093 250.215,224.009 257.773,217.524 259.963 C 215.366 260.692,214.097 260.800,207.722 260.800 L 200.400 260.800 200.400 247.267 C 200.400 239.823,200.535 233.594,200.700 233.424 C 201.182 232.928,215.223 233.433,216.800 234.004 M207.366 239.345 C 207.251 239.644,207.212 240.949,207.278 242.245 L 207.400 244.600 210.324 244.565 C 214.582 244.514,216.668 241.680,214.022 239.538 C 212.874 238.608,207.706 238.458,207.366 239.345 M127.361 241.358 C 128.095 241.665,128.978 242.319,129.324 242.813 L 129.953 243.711 131.166 242.690 C 134.533 239.857,139.539 240.339,141.886 243.722 L 143.000 245.329 143.000 252.965 L 143.000 260.600 139.700 260.716 L 136.400 260.832 136.395 254.716 C 136.388 247.683,136.280 247.056,134.968 246.458 C 132.186 245.190,131.452 246.729,131.371 254.000 C 131.336 257.190,131.283 260.033,131.253 260.317 C 131.214 260.701,130.407 260.804,128.100 260.717 L 125.000 260.600 124.800 253.919 C 124.583 246.683,124.453 246.267,122.400 246.267 C 120.347 246.267,120.217 246.682,120.000 253.919 L 119.800 260.600 116.600 260.600 L 113.400 260.600 113.400 251.000 L 113.400 241.400 116.288 241.283 C 119.115 241.168,119.182 241.188,119.441 242.221 C 119.587 242.801,119.817 243.102,119.953 242.888 C 121.089 241.105,124.881 240.322,127.361 241.358 M159.874 241.213 C 160.493 241.440,161.379 242.085,161.842 242.647 L 162.685 243.669 163.797 242.638 C 166.762 239.890,171.841 240.273,174.247 243.425 L 175.400 244.936 175.400 252.768 L 175.400 260.600 172.200 260.600 L 169.000 260.600 168.800 253.805 L 168.600 247.009 167.508 246.486 C 164.767 245.175,164.000 247.002,164.000 254.842 L 164.000 260.832 160.700 260.716 L 157.400 260.600 157.291 253.941 C 157.172 246.741,157.038 246.300,154.963 246.300 C 152.863 246.300,152.618 247.048,152.400 254.113 L 152.200 260.600 149.000 260.600 L 145.800 260.600 145.800 251.000 L 145.800 241.400 148.733 241.282 C 151.402 241.174,151.685 241.237,151.879 241.982 C 152.141 242.984,152.213 242.987,153.538 242.047 C 155.280 240.811,157.853 240.472,159.874 241.213 M192.878 241.966 C 196.480 243.600,198.732 247.871,198.283 252.219 C 196.954 265.097,177.411 263.955,177.411 251.000 C 177.411 242.913,185.085 238.431,192.878 241.966 M237.400 241.247 C 240.970 242.236,243.811 246.541,243.522 250.524 L 243.400 252.200 237.100 252.310 C 230.137 252.432,229.784 252.601,231.617 254.931 C 233.074 256.783,236.178 256.692,238.266 254.736 C 239.427 253.648,243.200 255.557,243.200 257.232 C 243.200 260.228,233.033 262.309,229.000 260.139 C 218.008 254.223,225.271 237.890,237.400 241.247 M262.105 242.100 C 264.552 243.967,264.800 245.005,264.800 253.377 L 264.800 260.832 261.500 260.716 L 258.200 260.600 258.000 254.160 C 257.774 246.884,257.598 246.400,255.180 246.400 C 252.324 246.400,252.033 247.163,251.897 255.000 L 251.800 260.600 248.600 260.600 L 245.400 260.600 245.400 251.000 L 245.400 241.400 248.333 241.282 C 251.002 241.174,251.285 241.237,251.479 241.982 C 251.737 242.968,251.950 242.991,253.139 242.158 C 255.575 240.452,259.907 240.424,262.105 242.100 M293.192 241.700 C 296.242 243.258,296.600 244.466,296.600 253.200 L 296.600 260.600 293.435 260.718 C 289.452 260.866,289.614 261.161,289.606 253.729 C 289.599 246.960,289.404 246.400,287.048 246.400 C 284.381 246.400,284.222 246.799,284.000 254.067 L 283.800 260.600 280.400 260.600 L 277.000 260.600 277.105 251.253 C 277.163 246.113,277.309 241.748,277.429 241.553 C 277.925 240.751,283.260 241.145,283.484 242.000 C 283.599 242.440,283.717 242.799,283.747 242.798 C 283.776 242.797,284.686 242.347,285.768 241.798 C 288.284 240.522,290.820 240.488,293.192 241.700 M274.200 251.000 L 274.200 260.600 271.000 260.600 L 267.800 260.600 267.692 251.409 C 267.561 240.218,267.252 241.138,271.094 241.283 L 274.200 241.400 274.200 251.000 M232.600 245.662 C 229.671 247.264,230.251 248.400,234.000 248.400 C 235.760 248.400,237.200 248.235,237.200 248.033 C 237.200 246.066,234.451 244.650,232.600 245.662 M185.455 247.055 C 183.634 248.875,184.169 254.965,186.218 255.752 C 189.647 257.067,191.547 254.798,191.202 249.802 C 190.954 246.220,187.798 244.711,185.455 247.055 M207.500 249.430 C 207.335 249.597,207.200 250.948,207.200 252.432 L 207.200 255.130 208.800 255.400 C 213.968 256.273,217.795 252.910,214.759 250.163 C 213.879 249.367,208.137 248.787,207.500 249.430 " stroke="none" fill="#fbfbfb" fill-rule="evenodd"></path><path id="path3" d="M269.000 232.862 C 265.438 234.810,267.170 239.497,271.304 239.100 C 273.795 238.860,274.800 237.840,274.800 235.550 C 274.800 233.090,271.434 231.530,269.000 232.862 M273.733 234.073 C 275.356 236.059,273.794 238.600,270.950 238.600 C 267.378 238.600,266.356 235.085,269.400 233.263 C 270.541 232.580,272.869 233.015,273.733 234.073 M104.354 233.611 L 103.400 233.836 103.400 247.218 L 103.400 260.600 106.565 260.718 C 108.827 260.802,109.824 260.688,110.059 260.318 C 110.799 259.152,110.461 234.061,109.700 233.655 C 108.958 233.259,105.949 233.234,104.354 233.611 M202.100 233.503 L 200.400 233.646 200.400 247.223 L 200.400 260.800 207.722 260.800 C 214.097 260.800,215.366 260.692,217.524 259.963 C 224.002 257.775,225.096 250.158,219.392 246.957 C 218.637 246.534,218.657 246.469,219.849 245.465 C 221.532 244.049,222.142 242.419,221.906 239.966 C 221.377 234.461,215.103 232.413,202.100 233.503 M109.738 237.300 C 110.302 244.540,110.053 259.894,109.367 260.157 C 108.549 260.471,105.051 260.471,104.233 260.157 C 103.573 259.904,103.220 234.913,103.867 234.267 C 104.013 234.120,105.337 234.000,106.807 234.000 L 109.481 234.000 109.738 237.300 M217.862 235.097 C 222.243 237.418,222.811 242.974,218.915 245.400 C 217.315 246.397,217.259 247.062,218.750 247.389 C 222.919 248.305,223.676 255.337,219.905 258.112 C 217.330 260.007,216.266 260.200,208.400 260.200 L 201.000 260.200 200.894 247.063 L 200.789 233.926 208.494 234.071 C 215.507 234.203,216.350 234.295,217.862 235.097 M206.884 241.700 L 207.000 245.000 210.050 245.116 C 213.812 245.259,215.600 244.173,215.600 241.746 C 215.600 239.231,214.259 238.400,210.202 238.400 L 206.768 238.400 206.884 241.700 M214.022 239.538 C 216.659 241.673,214.612 244.460,210.346 244.543 L 207.400 244.600 207.278 242.245 C 207.103 238.847,207.144 238.800,210.343 238.800 C 212.437 238.800,213.333 238.980,214.022 239.538 M122.183 241.362 C 121.513 241.653,120.676 242.181,120.323 242.534 C 119.733 243.124,119.660 243.094,119.428 242.171 C 119.184 241.199,119.081 241.169,116.288 241.283 L 113.400 241.400 113.400 251.000 L 113.400 260.600 116.600 260.600 L 119.800 260.600 120.000 253.919 C 120.217 246.682,120.347 246.267,122.400 246.267 C 124.453 246.267,124.583 246.682,124.800 253.919 L 125.000 260.600 128.100 260.717 L 131.200 260.834 131.217 255.717 C 131.243 248.189,131.623 246.677,133.600 246.231 C 135.873 245.717,136.180 246.559,136.400 253.916 L 136.600 260.600 139.800 260.600 L 143.000 260.600 143.000 252.965 L 143.000 245.329 141.886 243.722 C 139.556 240.363,134.509 239.877,131.166 242.690 C 129.965 243.701,129.947 243.703,129.390 242.908 C 128.084 241.043,124.620 240.300,122.183 241.362 M154.168 241.798 C 153.086 242.347,152.176 242.797,152.147 242.798 C 152.117 242.799,151.997 242.432,151.879 241.982 C 151.685 241.237,151.402 241.174,148.733 241.282 L 145.800 241.400 145.800 251.000 L 145.800 260.600 149.000 260.600 L 152.200 260.600 152.400 254.042 L 152.600 247.484 153.718 246.650 C 154.751 245.880,154.919 245.863,155.918 246.423 L 157.000 247.029 157.200 253.815 L 157.400 260.600 160.600 260.600 L 163.800 260.600 164.000 254.064 C 164.219 246.912,164.730 245.559,166.956 246.240 C 168.740 246.785,168.800 247.022,168.806 253.549 C 168.814 261.142,168.676 260.870,172.435 260.719 L 175.400 260.600 175.400 252.768 L 175.400 244.936 174.284 243.473 C 171.876 240.318,166.752 239.899,163.820 242.616 L 162.723 243.633 161.777 242.613 C 159.862 240.547,157.196 240.262,154.168 241.798 M183.678 241.534 C 174.693 244.742,175.315 258.343,184.562 260.846 C 192.619 263.026,199.710 256.699,198.063 248.800 C 196.783 242.657,190.054 239.259,183.678 241.534 M230.797 241.148 C 222.347 243.936,221.206 255.986,229.000 260.128 C 234.149 262.865,245.504 259.424,242.382 256.073 C 240.388 253.932,239.752 253.786,237.928 255.050 C 235.620 256.649,233.127 256.660,231.765 255.078 C 229.670 252.642,230.072 252.433,237.100 252.310 L 243.400 252.200 243.337 249.487 C 243.197 243.416,236.806 239.166,230.797 241.148 M255.128 241.192 C 254.538 241.370,253.643 241.805,253.139 242.158 C 251.950 242.991,251.737 242.968,251.479 241.982 C 251.285 241.237,251.002 241.174,248.333 241.282 L 245.400 241.400 245.400 251.000 L 245.400 260.600 248.600 260.600 L 251.800 260.600 252.000 254.311 C 252.231 247.053,252.491 246.400,255.147 246.400 C 257.603 246.400,257.773 246.864,258.000 254.160 L 258.200 260.600 261.400 260.600 L 264.600 260.600 264.600 252.800 C 264.600 245.206,264.575 244.964,263.640 243.653 C 261.971 241.314,258.270 240.244,255.128 241.192 M286.650 241.388 C 285.797 241.692,284.906 242.134,284.670 242.370 C 284.040 243.000,283.719 242.900,283.484 242.000 C 283.261 241.146,277.925 240.750,277.430 241.552 C 277.018 242.219,276.956 259.996,277.365 260.405 C 278.061 261.101,283.476 260.900,283.757 260.167 C 283.891 259.819,284.000 256.859,284.000 253.590 C 284.000 246.938,284.229 246.400,287.060 246.400 C 289.403 246.400,289.599 246.966,289.606 253.729 C 289.614 261.161,289.452 260.866,293.435 260.718 L 296.600 260.600 296.726 254.400 C 296.963 242.725,293.920 238.796,286.650 241.388 M160.684 242.298 C 161.171 242.613,161.678 243.215,161.811 243.636 C 162.128 244.634,162.890 244.605,163.837 243.559 C 166.608 240.497,172.384 241.008,174.281 244.482 C 174.898 245.613,175.000 246.824,175.000 253.000 L 175.000 260.200 172.400 260.200 L 169.800 260.200 169.594 253.660 C 169.366 246.434,169.038 245.600,166.418 245.600 C 164.170 245.600,163.821 246.610,163.600 253.740 L 163.400 260.200 160.800 260.200 L 158.200 260.200 158.000 253.741 C 157.775 246.490,157.447 245.588,155.038 245.613 C 152.398 245.640,152.222 246.098,152.000 253.516 L 151.800 260.200 149.827 260.325 C 145.814 260.579,146.084 261.229,146.077 251.303 C 146.070 241.639,146.081 241.600,148.616 241.600 C 150.836 241.600,151.600 241.912,151.600 242.819 C 151.600 243.836,152.209 244.113,152.822 243.374 C 154.439 241.425,158.486 240.871,160.684 242.298 M237.891 242.062 C 239.838 242.656,242.265 245.651,242.824 248.149 C 243.668 251.922,243.893 251.784,236.678 251.910 C 229.732 252.032,229.436 252.149,230.569 254.340 C 231.938 256.988,235.073 257.625,237.762 255.800 C 239.628 254.534,240.007 254.546,241.325 255.922 C 242.695 257.352,242.674 257.611,241.097 258.677 C 233.852 263.574,224.418 259.325,224.404 251.160 C 224.391 243.789,230.361 239.762,237.891 242.062 M261.400 242.354 C 263.901 243.738,264.430 245.749,264.308 253.400 L 264.200 260.200 261.400 260.200 L 258.600 260.200 258.500 254.000 C 258.371 246.018,257.394 244.429,253.585 246.006 C 251.838 246.730,251.819 246.806,251.600 253.800 L 251.400 260.200 249.427 260.325 C 248.341 260.394,247.036 260.345,246.527 260.217 L 245.600 259.985 245.600 251.272 C 245.600 241.562,245.590 241.600,248.247 241.600 C 250.436 241.600,251.200 241.915,251.200 242.819 C 251.200 243.687,251.837 244.188,252.198 243.604 C 253.470 241.546,258.664 240.840,261.400 242.354 M267.780 241.709 C 267.672 241.988,267.633 246.353,267.692 251.409 L 267.800 260.600 271.000 260.600 L 274.200 260.600 274.313 251.800 C 274.459 240.418,274.705 241.200,270.980 241.200 C 268.918 241.200,267.914 241.360,267.780 241.709 M293.473 242.467 C 295.642 243.770,296.043 245.566,295.913 253.400 L 295.800 260.200 293.200 260.200 L 290.600 260.200 290.400 253.664 C 290.167 246.046,289.812 245.305,286.607 245.735 C 283.564 246.143,283.200 247.052,283.200 254.241 L 283.200 260.437 280.500 260.318 L 277.800 260.200 277.692 251.100 L 277.585 242.000 279.292 241.954 C 280.232 241.928,281.270 241.881,281.600 241.848 C 282.479 241.759,283.200 242.391,283.200 243.249 C 283.200 244.162,283.722 244.217,284.418 243.378 C 286.195 241.237,290.676 240.786,293.473 242.467 M118.720 242.080 C 118.984 242.344,119.200 242.884,119.200 243.280 C 119.200 244.264,119.475 244.193,121.061 242.800 C 123.326 240.811,127.084 241.152,129.086 243.526 L 129.971 244.577 131.086 243.537 C 134.483 240.368,140.080 240.975,141.749 244.693 C 142.317 245.959,142.407 247.319,142.312 253.200 L 142.200 260.200 139.600 260.200 L 137.000 260.200 136.800 253.711 C 136.578 246.511,136.269 245.600,134.048 245.600 C 131.347 245.600,131.022 246.407,130.800 253.664 L 130.600 260.200 128.000 260.200 L 125.400 260.200 125.200 253.467 C 124.983 246.147,124.795 245.600,122.497 245.600 C 119.796 245.600,119.459 246.460,119.207 254.000 L 119.000 260.200 116.400 260.200 L 113.800 260.200 113.692 251.409 C 113.633 246.575,113.672 242.390,113.779 242.109 C 114.033 241.449,118.065 241.425,118.720 242.080 M192.788 242.594 C 201.669 247.094,198.071 260.608,188.000 260.580 C 181.597 260.561,178.018 257.126,178.018 251.000 C 178.018 243.369,185.695 239.000,192.788 242.594 M273.400 251.000 L 273.400 260.200 270.800 260.200 L 268.200 260.200 268.092 251.228 C 267.970 241.074,267.819 241.537,271.200 241.696 L 273.400 241.800 273.400 251.000 M231.955 245.400 C 230.587 246.144,229.625 248.317,230.436 248.831 C 231.319 249.390,237.032 249.284,237.517 248.700 C 239.292 246.561,234.763 243.874,231.955 245.400 M185.752 245.949 C 182.763 247.807,182.885 254.362,185.941 256.141 C 188.500 257.630,191.327 255.993,191.859 252.713 C 192.709 247.475,189.326 243.728,185.752 245.949 M235.571 245.785 C 236.617 246.326,237.200 247.130,237.200 248.033 C 237.200 248.235,235.760 248.400,234.000 248.400 C 230.673 248.400,230.199 248.106,231.300 246.726 C 232.501 245.220,233.888 244.915,235.571 245.785 M190.178 247.015 C 191.831 248.797,191.717 253.890,189.994 255.285 C 187.195 257.552,184.400 255.449,184.400 251.077 C 184.400 246.409,187.559 244.189,190.178 247.015 M206.884 252.300 L 207.000 255.800 209.971 255.919 C 214.356 256.095,216.400 254.938,216.400 252.280 C 216.400 249.862,214.574 248.800,210.415 248.800 L 206.769 248.800 206.884 252.300 M214.759 250.163 C 217.534 252.674,214.937 255.718,210.200 255.507 L 207.400 255.382 207.279 252.833 C 207.102 249.074,207.084 249.092,210.763 249.259 C 213.162 249.368,214.120 249.585,214.759 250.163 " stroke="none" fill="#9da1ae" fill-rule="evenodd"></path><path id="path4" d="M198.071 104.023 C 197.199 104.373,193.287 107.608,189.200 111.358 C 188.210 112.267,186.770 113.527,186.000 114.160 C 185.230 114.792,183.250 116.526,181.600 118.012 C 179.950 119.499,176.800 122.287,174.600 124.207 C 169.454 128.700,169.125 128.991,163.280 134.208 C 160.574 136.624,157.424 139.380,156.280 140.333 C 150.086 145.495,146.795 149.368,146.806 151.480 C 146.818 153.570,147.239 153.789,151.533 153.936 L 155.496 154.072 155.747 157.336 C 155.885 159.131,156.190 163.924,156.424 167.988 C 157.113 179.967,158.305 184.640,162.190 190.602 C 164.215 193.709,174.566 204.035,184.400 212.757 C 186.710 214.805,190.582 218.504,193.005 220.975 C 198.189 226.263,199.300 226.713,202.983 225.018 C 204.418 224.358,205.147 224.209,205.510 224.502 C 206.222 225.078,206.659 224.506,206.141 223.677 C 205.271 222.284,205.393 222.144,216.200 212.193 C 220.961 207.808,228.647 200.485,233.202 195.991 C 240.890 188.409,242.731 182.928,243.615 165.000 C 244.222 152.708,243.716 154.000,247.919 154.000 C 252.367 154.000,253.391 153.438,253.086 151.164 C 252.760 148.734,251.583 147.453,241.200 138.232 C 240.430 137.548,238.081 135.461,235.981 133.594 C 233.880 131.727,231.630 129.747,230.981 129.194 C 230.331 128.641,226.934 125.671,223.432 122.594 C 219.930 119.517,216.330 116.370,215.433 115.600 C 214.535 114.830,211.281 111.978,208.201 109.262 C 201.582 103.427,200.698 102.970,198.071 104.023 M204.560 107.104 C 208.439 110.413,218.163 118.871,219.800 120.358 C 220.460 120.958,224.780 124.763,229.400 128.812 C 251.720 148.378,252.712 149.384,252.333 152.059 C 252.205 152.964,252.038 153.008,248.000 153.200 L 243.800 153.400 243.532 156.800 C 243.384 158.670,243.064 163.800,242.819 168.200 C 241.787 186.784,240.922 188.165,215.400 211.989 C 200.948 225.480,201.518 225.028,199.455 224.630 C 198.122 224.373,197.568 223.936,191.600 218.440 C 189.510 216.516,185.280 212.637,182.200 209.821 C 158.880 188.497,158.066 187.003,156.798 163.200 C 156.205 152.062,156.725 153.200,152.221 153.200 C 147.871 153.200,147.033 152.775,147.586 150.850 C 148.156 148.861,149.157 147.718,154.548 142.897 C 157.437 140.314,159.890 138.103,160.000 137.982 C 160.110 137.861,161.640 136.517,163.400 134.995 C 165.160 133.474,166.974 131.862,167.432 131.414 C 167.890 130.966,168.812 130.150,169.481 129.600 C 170.847 128.477,174.210 125.522,180.178 120.200 C 200.683 101.914,199.330 102.641,204.560 107.104 M195.600 125.439 C 194.610 126.233,192.576 127.795,191.081 128.910 L 188.362 130.938 188.481 132.769 L 188.600 134.600 193.600 134.600 L 198.600 134.600 198.600 129.405 C 198.600 123.368,198.442 123.160,195.600 125.439 M201.288 129.500 L 201.400 134.600 206.400 134.600 L 211.400 134.600 211.400 132.841 L 211.400 131.082 207.029 127.741 C 201.070 123.186,201.149 123.162,201.288 129.500 M198.315 129.891 L 198.200 133.800 193.748 133.913 C 187.032 134.083,186.985 132.928,193.503 127.996 C 198.507 124.210,198.481 124.200,198.315 129.891 M206.630 128.300 C 210.938 131.508,212.092 133.419,210.167 134.157 C 208.830 134.670,202.514 134.419,202.028 133.834 C 201.583 133.297,201.829 125.200,202.291 125.200 C 202.389 125.200,204.341 126.595,206.630 128.300 M188.574 137.724 C 188.463 138.013,188.424 140.308,188.486 142.824 L 188.600 147.400 193.600 147.400 L 198.600 147.400 198.712 142.300 L 198.824 137.200 193.799 137.200 C 190.024 137.200,188.725 137.330,188.574 137.724 M201.378 137.712 C 201.265 138.007,201.224 140.308,201.286 142.824 L 201.400 147.400 206.400 147.400 L 211.400 147.400 211.400 142.400 L 211.400 137.400 206.492 137.288 C 202.676 137.200,201.539 137.295,201.378 137.712 M197.966 138.159 C 198.268 138.522,198.390 140.097,198.315 142.659 L 198.200 146.600 193.600 146.600 L 189.000 146.600 188.882 143.000 C 188.697 137.332,188.475 137.600,193.359 137.600 C 196.419 137.600,197.623 137.746,197.966 138.159 M210.720 138.080 C 211.827 139.187,211.335 146.368,210.121 146.830 C 209.043 147.240,202.743 147.059,201.994 146.596 C 201.415 146.238,201.491 138.669,202.080 138.080 C 202.734 137.426,210.066 137.426,210.720 138.080 M197.070 158.838 C 175.125 162.046,175.914 193.058,198.000 195.396 C 215.516 197.251,226.005 176.438,213.708 164.228 C 210.376 160.919,203.148 157.932,199.723 158.449 C 199.546 158.476,198.352 158.651,197.070 158.838 M204.200 159.750 C 212.798 161.618,218.715 169.114,218.288 177.600 C 217.346 196.307,191.842 201.411,183.379 184.586 C 176.623 171.156,188.961 156.439,204.200 159.750 M201.505 233.483 C 202.002 233.579,202.722 233.575,203.105 233.475 C 203.487 233.375,203.080 233.296,202.200 233.301 C 201.320 233.305,201.007 233.387,201.505 233.483 M131.309 258.400 C 131.309 259.390,131.387 259.795,131.482 259.300 C 131.578 258.805,131.578 257.995,131.482 257.500 C 131.387 257.005,131.309 257.410,131.309 258.400 " stroke="none" fill="#f49bb6" fill-rule="evenodd"></path></g></svg>